<svg width="20" height="20" viewBox="0 0 20 20" fill="none" xmlns="http://www.w3.org/2000/svg">
<path d="M1.66675 11.6667C1.66675 8.7445 1.66675 7.28336 2.42338 6.29993C2.5619 6.1199 2.71666 5.95483 2.88544 5.80708C3.8074 5 5.17718 5 7.91675 5H12.0834C14.823 5 16.1927 5 17.1147 5.80708C17.2835 5.95483 17.4382 6.1199 17.5767 6.29993C18.3334 7.28336 18.3334 8.7445 18.3334 11.6667C18.3334 14.5888 18.3334 16.05 17.5767 17.0334C17.4382 17.2134 17.2835 17.3785 17.1147 17.5262C16.1927 18.3333 14.823 18.3333 12.0834 18.3333H7.91675C5.17718 18.3333 3.8074 18.3333 2.88544 17.5262C2.71666 17.3785 2.5619 17.2134 2.42338 17.0334C1.66675 16.05 1.66675 14.5888 1.66675 11.6667Z" stroke="#606E80" strokeWidth="1.5"/>
<path d="M13.3334 5.00002C13.3334 3.42867 13.3334 2.643 12.8452 2.15485C12.3571 1.66669 11.5714 1.66669 10.0001 1.66669C8.42875 1.66669 7.64306 1.66669 7.15491 2.15485C6.66675 2.643 6.66675 3.42867 6.66675 5.00002" stroke="#606E80" strokeWidth="1.5" strokeLinecap="round" strokeLinejoin="round"/>
<path d="M9.99992 9.16665C9.07942 9.16665 8.33325 9.72631 8.33325 10.4166C8.33325 11.107 9.07942 11.6666 9.99992 11.6666C10.9204 11.6666 11.6666 12.2263 11.6666 12.9166C11.6666 13.607 10.9204 14.1666 9.99992 14.1666M9.99992 9.16665C10.7256 9.16665 11.3429 9.51448 11.5718 9.99998M9.99992 9.16665V8.33331M9.99992 14.1666C9.27425 14.1666 8.65692 13.8188 8.42809 13.3333M9.99992 14.1666V15" stroke="#606E80" strokeWidth="1.5" strokeLinecap="round"/>
<path d="M5.00008 10H1.66675" stroke="#606E80" strokeWidth="1.5" strokeLinecap="round"/>
<path d="M18.3333 10H15" stroke="#606E80" strokeWidth="1.5" strokeLinecap="round"/>
</svg>
