<svg width="20" height="20" viewBox="0 0 20 20" fill="none" xmlns="http://www.w3.org/2000/svg">
<g clipPath="url(#clip0_10_253)">
<path d="M18 6.00155L12 0.741588C11.45 0.249636 10.738 -0.0223389 10 -0.0223389C9.2621 -0.0223389 8.55006 0.249636 8.00005 0.741588L2.00009 6.00155C1.68246 6.28562 1.42899 6.6341 1.25656 7.02379C1.08414 7.41347 0.996707 7.83542 1.00009 8.26153V17.0015C1.00009 17.7971 1.31616 18.5602 1.87877 19.1228C2.44137 19.6854 3.20443 20.0015 4.00007 20.0015H16C16.7956 20.0015 17.5587 19.6854 18.1213 19.1228C18.6839 18.5602 19 17.7971 19 17.0015V8.25153C19.0019 7.8271 18.9138 7.40708 18.7414 7.01923C18.5691 6.63137 18.3163 6.28451 18 6.00155ZM12 18.0015H8.00005V13.0015C8.00005 12.7363 8.1054 12.4819 8.29294 12.2944C8.48047 12.1069 8.73482 12.0015 9.00004 12.0015H11C11.2652 12.0015 11.5196 12.1069 11.7071 12.2944C11.8947 12.4819 12 12.7363 12 13.0015V18.0015ZM17 17.0015C17 17.2667 16.8946 17.521 16.7071 17.7086C16.5196 17.8961 16.2652 18.0015 16 18.0015H14V13.0015C14 12.2059 13.6839 11.4428 13.1213 10.8802C12.5587 10.3176 11.7957 10.0015 11 10.0015H9.00004C8.20439 10.0015 7.44134 10.3176 6.87873 10.8802C6.31613 11.4428 6.00006 12.2059 6.00006 13.0015V18.0015H4.00007C3.73486 18.0015 3.48051 17.8961 3.29297 17.7086C3.10544 17.521 3.00008 17.2667 3.00008 17.0015V8.25153C3.00026 8.10955 3.03067 7.96923 3.0893 7.83992C3.14792 7.7106 3.23341 7.59525 3.34008 7.50154L9.34004 2.25158C9.52252 2.09126 9.75712 2.00284 10 2.00284C10.2429 2.00284 10.4775 2.09126 10.66 2.25158L16.66 7.50154C16.7667 7.59525 16.8521 7.7106 16.9108 7.83992C16.9694 7.96923 16.9998 8.10955 17 8.25153V17.0015Z" fill="#3348FF"/>
</g>
<defs>
<clipPath id="clip0_10_253">
<rect width="20" height="20" fill="white"/>
</clipPath>
</defs>
</svg>
