<svg width="20" height="20" viewBox="0 0 20 20" fill="none" xmlns="http://www.w3.org/2000/svg">
<path d="M16.9283 2.10645H3.62832C2.87245 2.10645 2.14754 2.40671 1.61307 2.94119C1.07859 3.47567 0.77832 4.20058 0.77832 4.95645V14.4564C0.77832 15.2123 1.07859 15.9372 1.61307 16.4717C2.14754 17.0062 2.87245 17.3064 3.62832 17.3064H16.9283C17.6842 17.3064 18.4091 17.0062 18.9436 16.4717C19.4781 15.9372 19.7783 15.2123 19.7783 14.4564V4.95645C19.7783 4.20058 19.4781 3.47567 18.9436 2.94119C18.4091 2.40671 17.6842 2.10645 16.9283 2.10645ZM16.2918 4.00645L10.2783 8.51895L4.26482 4.00645H16.2918ZM16.9283 15.4064H3.62832C3.37636 15.4064 3.13473 15.3064 2.95657 15.1282C2.77841 14.95 2.67832 14.7084 2.67832 14.4564V5.19395L9.70832 10.4664C9.87276 10.5898 10.0728 10.6564 10.2783 10.6564C10.4839 10.6564 10.6839 10.5898 10.8483 10.4664L17.8783 5.19395V14.4564C17.8783 14.7084 17.7782 14.95 17.6001 15.1282C17.4219 15.3064 17.1803 15.4064 16.9283 15.4064Z" fill="#606E80"/>
</svg>
