<svg width="20" height="20" viewBox="0 0 20 20" fill="none" xmlns="http://www.w3.org/2000/svg">
<path d="M12.3299 4.91441C12.3299 6.21995 11.2716 7.2783 9.96604 7.2783C8.6605 7.2783 7.60215 6.21994 7.60215 4.91441C7.60215 3.60887 8.6605 2.55051 9.96604 2.55051C11.2716 2.55051 12.3299 3.60886 12.3299 4.91441Z" stroke="#606E80" strokeWidth="1.8"/>
<path d="M17.7697 7.09048C17.7697 7.79516 17.1985 8.36641 16.4938 8.36641C15.7891 8.36641 15.2179 7.79516 15.2179 7.09048C15.2179 6.38579 15.7891 5.81455 16.4938 5.81455C17.1985 5.81455 17.7697 6.38579 17.7697 7.09048Z" stroke="#606E80" strokeWidth="1.8"/>
<path d="M9.96587 11.2544C11.8722 11.2544 13.4177 12.7999 13.4177 14.7062V17.0701H6.51401V14.7062C6.51401 12.7999 8.05947 11.2544 9.96587 11.2544Z" stroke="#606E80" strokeWidth="1.8"/>
<path d="M4.71406 7.09048C4.71406 7.79516 4.14281 8.36641 3.43814 8.36641C2.73346 8.36641 2.16221 7.79516 2.16221 7.09048C2.16221 6.3858 2.73346 5.81455 3.43814 5.81455C4.14281 5.81455 4.71406 6.3858 4.71406 7.09048Z" stroke="#606E80" strokeWidth="1.8"/>
<path d="M17.3934 17.0702V14.7063C17.3934 13.9033 17.2657 13.129 17.0293 12.4034C18.0767 12.6461 18.8573 13.585 18.8573 14.7063V17.0702H17.3934Z" stroke="#606E80" strokeWidth="1.8"/>
<path d="M1.07407 14.7063C1.07407 13.585 1.8547 12.6461 2.90213 12.4034C2.6657 13.129 2.53797 13.9032 2.53797 14.7063V17.0702H1.07407V14.7063Z" stroke="#606E80" strokeWidth="1.8"/>
</svg>
