<svg width="20" height="20" viewBox="0 0 20 20" fill="none" xmlns="http://www.w3.org/2000/svg">
<path d="M1.66675 5.83333C1.66675 4.66656 1.66675 4.08317 1.89381 3.63752C2.09356 3.24552 2.41226 2.92681 2.80426 2.72707C3.24991 2.5 3.83331 2.5 5.00008 2.5C6.16686 2.5 6.75025 2.5 7.1959 2.72707C7.5879 2.92681 7.90661 3.24552 8.10635 3.63752C8.33341 4.08317 8.33341 4.66656 8.33341 5.83333V14.1667C8.33341 15.3334 8.33341 15.9168 8.10635 16.3625C7.90661 16.7545 7.5879 17.0732 7.1959 17.2729C6.75025 17.5 6.16686 17.5 5.00008 17.5C3.83331 17.5 3.24991 17.5 2.80426 17.2729C2.41226 17.0732 2.09356 16.7545 1.89381 16.3625C1.66675 15.9168 1.66675 15.3334 1.66675 14.1667V5.83333Z" stroke="#606E80" strokeWidth="1.5" strokeLinecap="round" strokeLinejoin="round"/>
<path d="M5 14.1666H5.00748" stroke="#606E80" strokeWidth="2" strokeLinecap="round" strokeLinejoin="round"/>
<path d="M1.66675 5.83337H8.33341" stroke="#606E80" strokeWidth="1.5" strokeLinecap="round" strokeLinejoin="round"/>
<path d="M9.54057 6.89036C9.24482 5.78198 9.09699 5.2278 9.19882 4.74666C9.2884 4.32343 9.50907 3.93956 9.82932 3.65004C10.1933 3.3209 10.7452 3.17241 11.849 2.87542C12.9527 2.57843 13.5047 2.42994 13.9837 2.53221C14.4052 2.62217 14.7875 2.8438 15.0758 3.16534C15.4036 3.53088 15.5515 4.08507 15.8472 5.19344L17.9596 13.1097C18.2553 14.218 18.4032 14.7722 18.3013 15.2533C18.2117 15.6766 17.9911 16.0604 17.6708 16.35C17.3068 16.6791 16.7549 16.8276 15.6512 17.1246C14.5474 17.4216 13.9955 17.5701 13.5164 17.4678C13.0949 17.3778 12.7127 17.1562 12.4243 16.8347C12.0966 16.4691 11.9487 15.9149 11.6529 14.8066L9.54057 6.89036Z" stroke="#606E80" strokeWidth="1.5" strokeLinecap="round" strokeLinejoin="round"/>
<path d="M14.8176 13.9128L14.8249 13.9109" stroke="#606E80" strokeWidth="2" strokeLinecap="round" strokeLinejoin="round"/>
<path d="M10 6.66682L15.4167 5" stroke="#606E80" strokeWidth="1.5" strokeLinecap="round" strokeLinejoin="round"/>
</svg>
