<svg width="135" height="56" viewBox="0 0 135 56" fill="none" xmlns="http://www.w3.org/2000/svg">
<path d="M2.583 49.999V20.6694H7.52681V24.1967H7.81843C8.07766 23.6783 8.44335 23.1274 8.91552 22.5442C9.38768 21.9517 10.0265 21.4471 10.8319 21.0305C11.6374 20.6046 12.665 20.3917 13.9149 20.3917C15.5628 20.3917 17.0487 20.8129 18.3726 21.6554C19.7058 22.4886 20.7612 23.7246 21.5389 25.3633C22.3258 26.9927 22.7193 28.9924 22.7193 31.3625C22.7193 33.7048 22.3351 35.6953 21.5667 37.3339C20.7982 38.9726 19.7521 40.2225 18.4282 41.0835C17.1043 41.9445 15.6045 42.375 13.9288 42.375C12.7067 42.375 11.6929 42.1713 10.8875 41.7639C10.082 41.3566 9.43397 40.8659 8.94329 40.2919C8.46187 39.7086 8.08692 39.1578 7.81843 38.6393H7.61013V49.999H2.583ZM7.51292 31.3347C7.51292 32.7142 7.70734 33.9223 8.09618 34.9592C8.49427 35.9961 9.06364 36.8062 9.80429 37.3895C10.5542 37.9635 11.4615 38.2505 12.5262 38.2505C13.6371 38.2505 14.5676 37.9542 15.3175 37.3617C16.0674 36.7599 16.6321 35.9406 17.0117 34.9037C17.4005 33.8575 17.595 32.6679 17.595 31.3347C17.595 30.0108 17.4052 28.835 17.0256 27.8074C16.646 26.7797 16.0813 25.9743 15.3314 25.391C14.5815 24.8078 13.6464 24.5161 12.5262 24.5161C11.4522 24.5161 10.5403 24.7985 9.7904 25.3633C9.0405 25.928 8.47113 26.7196 8.08229 27.738C7.70271 28.7563 7.51292 29.9553 7.51292 31.3347ZM37.2496 42.4166C35.111 42.4166 33.264 41.9722 31.7087 41.0835C30.1626 40.1854 28.9729 38.9171 28.1397 37.2784C27.3065 35.6305 26.8899 33.6909 26.8899 31.4597C26.8899 29.2655 27.3065 27.3399 28.1397 25.6827C28.9822 24.0162 30.158 22.7201 31.667 21.7943C33.1761 20.8592 34.949 20.3917 36.9858 20.3917C38.3004 20.3917 39.541 20.6046 40.7075 21.0305C41.8833 21.4471 42.9202 22.0952 43.8182 22.9747C44.7255 23.8542 45.4384 24.9744 45.9568 26.3354C46.4753 27.687 46.7345 29.2979 46.7345 31.1681V32.7095H29.2507V29.3211H41.9157C41.9064 28.3582 41.6981 27.5019 41.2908 26.752C40.8834 25.9928 40.3141 25.3957 39.5827 24.9605C38.8605 24.5254 38.0181 24.3078 37.0552 24.3078C36.0276 24.3078 35.1249 24.5578 34.3472 25.0577C33.5696 25.5484 32.9632 26.1965 32.528 27.0019C32.1022 27.7981 31.8846 28.673 31.8753 29.6266V32.5845C31.8753 33.8251 32.1022 34.8898 32.5558 35.7786C33.0094 36.6581 33.6436 37.3339 34.4583 37.8061C35.273 38.269 36.2266 38.5005 37.3191 38.5005C38.0505 38.5005 38.7124 38.3986 39.3049 38.1949C39.8974 37.982 40.4113 37.6719 40.8464 37.2645C41.2815 36.8571 41.6102 36.3526 41.8324 35.7508L46.5262 36.2785C46.23 37.5191 45.6652 38.6023 44.832 39.5281C44.008 40.4446 42.9526 41.1575 41.6657 41.6667C40.3789 42.1666 38.9068 42.4166 37.2496 42.4166Z" fill="#181D25"/>
<path d="M77.1516 49.9989V20.6694H82.0954V24.1967H82.387C82.6463 23.6782 83.012 23.1274 83.4841 22.5441C83.9563 21.9516 84.5951 21.447 85.4005 21.0304C86.206 20.6046 87.2336 20.3916 88.4835 20.3916C90.1314 20.3916 91.6173 20.8129 92.9412 21.6553C94.2744 22.4886 95.3298 23.7245 96.1075 25.3632C96.8944 26.9926 97.2879 28.9924 97.2879 31.3624C97.2879 33.7047 96.9037 35.6952 96.1353 37.3339C95.3668 38.9726 94.3207 40.2224 92.9968 41.0834C91.6729 41.9444 90.1731 42.3749 88.4974 42.3749C87.2753 42.3749 86.2615 42.1712 85.4561 41.7639C84.6506 41.3565 84.0026 40.8658 83.5119 40.2918C83.0305 39.7086 82.6555 39.1577 82.387 38.6393H82.1787V49.9989H77.1516ZM82.0815 31.3346C82.0815 32.7141 82.2759 33.9223 82.6648 34.9592C83.0629 35.9961 83.6322 36.8062 84.3729 37.3894C85.1228 37.9634 86.0301 38.2504 87.0948 38.2504C88.2057 38.2504 89.1362 37.9542 89.8861 37.3616C90.636 36.7599 91.2007 35.9405 91.5803 34.9036C91.9691 33.8575 92.1636 32.6678 92.1636 31.3346C92.1636 30.0107 91.9738 28.835 91.5942 27.8073C91.2146 26.7797 90.6499 25.9742 89.9 25.391C89.1501 24.8077 88.215 24.5161 87.0948 24.5161C86.0208 24.5161 85.1089 24.7985 84.359 25.3632C83.6091 25.9279 83.0397 26.7195 82.6509 27.7379C82.2713 28.7563 82.0815 29.9552 82.0815 31.3346ZM107.402 13.5592V41.9999H102.375V13.5592H107.402ZM122.797 42.4166C120.658 42.4166 118.811 41.9722 117.256 41.0834C115.71 40.1854 114.52 38.917 113.687 37.2783C112.854 35.6304 112.437 33.6908 112.437 31.4596C112.437 29.2655 112.854 27.3398 113.687 25.6826C114.53 24.0162 115.705 22.72 117.214 21.7942C118.723 20.8592 120.496 20.3916 122.533 20.3916C123.848 20.3916 125.088 20.6046 126.255 21.0304C127.431 21.447 128.468 22.0951 129.366 22.9746C130.273 23.8541 130.986 24.9744 131.504 26.3353C132.023 27.687 132.282 29.2979 132.282 31.168V32.7095H114.798V29.321H127.463C127.454 28.3582 127.245 27.5018 126.838 26.7519C126.431 25.9927 125.861 25.3956 125.13 24.9605C124.408 24.5253 123.565 24.3078 122.603 24.3078C121.575 24.3078 120.672 24.5577 119.895 25.0577C119.117 25.5484 118.51 26.1964 118.075 27.0019C117.649 27.7981 117.432 28.673 117.423 29.6265V32.5845C117.423 33.8251 117.649 34.8897 118.103 35.7785C118.557 36.658 119.191 37.3339 120.006 37.806C120.82 38.2689 121.774 38.5004 122.866 38.5004C123.598 38.5004 124.26 38.3986 124.852 38.1949C125.445 37.9819 125.959 37.6718 126.394 37.2644C126.829 36.8571 127.158 36.3525 127.38 35.7507L132.074 36.2785C131.777 37.519 131.213 38.6022 130.379 39.528C129.555 40.4446 128.5 41.1575 127.213 41.6666C125.926 42.1666 124.454 42.4166 122.797 42.4166Z" fill="#181D25"/>
<path d="M71.9974 21.6956C71.9974 27.8199 67.0327 32.7845 60.9085 32.7845C54.7842 32.7845 49.8196 27.8199 49.8196 21.6956C49.8196 15.5714 54.7842 10.6068 60.9085 10.6068C67.0327 10.6068 71.9974 15.5714 71.9974 21.6956ZM55.2485 21.6956C55.2485 24.8216 57.7825 27.3556 60.9085 27.3556C64.0344 27.3556 66.5685 24.8216 66.5685 21.6956C66.5685 18.5697 64.0344 16.0356 60.9085 16.0356C57.7825 16.0356 55.2485 18.5697 55.2485 21.6956Z" fill="#1E32E1"/>
<path d="M71.9974 44.8376C71.9974 41.8967 70.8291 39.0761 68.7495 36.9966C66.6699 34.917 63.8494 33.7487 60.9085 33.7487C57.9675 33.7487 55.147 34.917 53.0674 36.9966C50.9879 39.0761 49.8196 41.8966 49.8196 44.8376L55.2485 44.8376C55.2485 43.3365 55.8448 41.8968 56.9063 40.8354C57.9677 39.7739 59.4073 39.1776 60.9085 39.1776C62.4096 39.1776 63.8492 39.7739 64.9107 40.8354C65.9721 41.8968 66.5685 43.3365 66.5685 44.8376H71.9974Z" fill="#1E32E1"/>
</svg>
