<svg width="23" height="46" viewBox="0 0 23 46" fill="none" xmlns="http://www.w3.org/2000/svg">
<path d="M22.1778 11.6956C22.1778 17.8198 17.2131 22.7845 11.0889 22.7845C4.96466 22.7845 0 17.8198 0 11.6956C0 5.57135 4.96466 0.606689 11.0889 0.606689C17.2131 0.606689 22.1778 5.57135 22.1778 11.6956ZM5.4289 11.6956C5.4289 14.8215 7.96296 17.3556 11.0889 17.3556C14.2148 17.3556 16.7489 14.8215 16.7489 11.6956C16.7489 8.56965 14.2148 6.03559 11.0889 6.03559C7.96296 6.03559 5.4289 8.56965 5.4289 11.6956Z" fill="#1E32E1"/>
<path d="M22.1778 34.8375C22.1778 31.8966 21.0095 29.0761 18.9299 26.9965C16.8503 24.9169 14.0298 23.7487 11.0889 23.7487C8.14793 23.7487 5.32743 24.9169 3.24786 26.9965C1.16829 29.0761 4.44072e-07 31.8966 0 34.8375L5.4289 34.8375C5.4289 33.3364 6.02522 31.8968 7.08667 30.8353C8.14813 29.7739 9.58777 29.1776 11.0889 29.1776C12.59 29.1776 14.0297 29.7739 15.0911 30.8353C16.1526 31.8968 16.7489 33.3364 16.7489 34.8375H22.1778Z" fill="#1E32E1"/>
</svg>
