<svg width="20" height="20" viewBox="0 0 20 20" fill="none" xmlns="http://www.w3.org/2000/svg">
<path d="M1.66675 9.16665C1.66675 6.41679 1.66675 5.04185 2.52102 4.18759C3.37529 3.33331 4.75022 3.33331 7.50008 3.33331H8.33341C11.0832 3.33331 12.4582 3.33331 13.3125 4.18759C14.1667 5.04185 14.1667 6.41679 14.1667 9.16665V10.8333C14.1667 13.5831 14.1667 14.9581 13.3125 15.8124C12.4582 16.6666 11.0832 16.6666 8.33341 16.6666H7.50008C4.75022 16.6666 3.37529 16.6666 2.52102 15.8124C1.66675 14.9581 1.66675 13.5831 1.66675 10.8333V9.16665Z" stroke="#606E80" strokeWidth="1.5"/>
<path d="M14.1667 7.42156L14.2717 7.33499C16.0348 5.88021 16.9164 5.15282 17.6249 5.50404C18.3334 5.85526 18.3334 7.01965 18.3334 9.34844V10.6516C18.3334 12.9804 18.3334 14.1448 17.6249 14.496C16.9164 14.8472 16.0348 14.1199 14.2717 12.665L14.1667 12.5784" stroke="#606E80" strokeWidth="1.5" strokeLinecap="round"/>
<path d="M9.58325 9.16669C10.2736 9.16669 10.8333 8.60704 10.8333 7.91669C10.8333 7.22633 10.2736 6.66669 9.58325 6.66669C8.8929 6.66669 8.33325 7.22633 8.33325 7.91669C8.33325 8.60704 8.8929 9.16669 9.58325 9.16669Z" stroke="#606E80" strokeWidth="1.5"/>
</svg>
